<?xml version="1.0" encoding="UTF-8"?>
<svg id="Layer_2" data-name="Layer 2" xmlns="http://www.w3.org/2000/svg" viewBox="0 0 265.55 56.02">
  <g id="Layer_1-2" data-name="Layer 1">
    <g>
      <g>
        <path d="M7.32,56.02c-.94,0-1.87-.18-2.78-.53-.92-.35-1.72-.88-2.43-1.58s-1.23-1.51-1.58-2.43-.53-1.84-.53-2.78.18-1.85.53-2.74c.35-.89.88-1.69,1.58-2.39.7-.7,1.23-1.51,1.58-2.43.35-.91.53-1.84.53-2.78s-.18-1.85-.53-2.74c-.35-.89-.88-1.69-1.58-2.39-.7-.7-1.23-1.51-1.58-2.43-.35-.92-.53-1.84-.53-2.78s.18-1.85.53-2.74c.35-.89.88-1.69,1.58-2.39.7-.7,1.23-1.51,1.58-2.43.35-.91.53-1.84.53-2.78s-.18-1.85-.53-2.74c-.35-.89-.88-1.69-1.58-2.39-.7-.7-1.23-1.51-1.58-2.43-.35-.92-.53-1.84-.53-2.78s.18-1.86.53-2.78.88-1.72,1.58-2.43c.7-.7,1.51-1.23,2.43-1.58.91-.35,1.84-.53,2.78-.53s1.85.18,2.74.53c.89.35,1.69.88,2.39,1.58.7.7,1.51,1.24,2.43,1.62.92.38,1.84.56,2.78.56s1.85-.19,2.75-.56c.89-.37,1.69-.91,2.39-1.62.7-.7,1.51-1.23,2.43-1.58.92-.35,1.84-.53,2.78-.53s1.85.18,2.74.53c.89.35,1.69.88,2.39,1.58.7.7,1.23,1.51,1.58,2.43.35.92.53,1.84.53,2.78s-.18,1.86-.53,2.78c-.35.91-.88,1.72-1.58,2.43s-1.23,1.5-1.58,2.39c-.35.89-.53,1.81-.53,2.74s.18,1.87.53,2.78c.35.92.88,1.72,1.58,2.43.7.7,1.23,1.5,1.58,2.39.35.89.53,1.81.53,2.74s-.18,1.86-.53,2.78c-.35.91-.88,1.72-1.58,2.43s-1.23,1.5-1.58,2.39c-.35.89-.53,1.81-.53,2.74s.18,1.87.53,2.78c.35.92.88,1.72,1.58,2.43.7.7,1.23,1.5,1.58,2.39.35.89.53,1.81.53,2.74s-.18,1.86-.53,2.78c-.35.92-.88,1.72-1.58,2.43-.7.7-1.5,1.23-2.39,1.58-.89.35-1.81.53-2.74.53s-1.87-.18-2.78-.53c-.92-.35-1.72-.88-2.43-1.58-.7-.7-1.23-1.51-1.58-2.43-.35-.92-.53-1.84-.53-2.78s.18-1.85.53-2.74c.35-.89.88-1.69,1.58-2.39.7-.7,1.23-1.51,1.58-2.43.35-.91.53-1.84.53-2.78s-.18-1.85-.53-2.74c-.35-.89-.88-1.69-1.58-2.39-.7-.7-1.5-1.23-2.39-1.58-.89-.35-1.81-.53-2.75-.53s-1.86.18-2.78.53c-.92.35-1.72.88-2.43,1.58-.7.7-1.23,1.5-1.58,2.39-.35.89-.53,1.81-.53,2.74s.18,1.87.53,2.78c.35.92.88,1.72,1.58,2.43.7.7,1.23,1.5,1.58,2.39.35.89.53,1.81.53,2.74s-.18,1.86-.53,2.78-.88,1.72-1.58,2.43-1.5,1.23-2.39,1.58c-.89.35-1.81.53-2.74.53ZM17.66,24.98c.94,0,1.85-.18,2.75-.53.89-.35,1.69-.88,2.39-1.58.7-.7,1.23-1.51,1.58-2.43.35-.91.53-1.84.53-2.78s-.18-1.85-.53-2.74c-.35-.89-.88-1.69-1.58-2.39-.7-.7-1.5-1.23-2.39-1.58-.89-.35-1.81-.53-2.75-.53s-1.86.18-2.78.53c-.92.35-1.72.88-2.43,1.58-.7.7-1.23,1.5-1.58,2.39-.35.89-.53,1.81-.53,2.74s.18,1.87.53,2.78c.35.92.88,1.72,1.58,2.43.7.7,1.51,1.23,2.43,1.58.92.35,1.84.53,2.78.53Z"/>
        <path d="M48.7,56.02c-.94,0-1.87-.18-2.78-.53-.92-.35-1.72-.88-2.43-1.58s-1.23-1.51-1.58-2.43-.53-1.84-.53-2.78.18-1.85.53-2.74c.35-.89.88-1.69,1.58-2.39.7-.7,1.23-1.51,1.58-2.43.35-.91.53-1.84.53-2.78s-.18-1.85-.53-2.74c-.35-.89-.88-1.69-1.58-2.39-.7-.7-1.23-1.51-1.58-2.43-.35-.92-.53-1.84-.53-2.78s.18-1.85.53-2.74c.35-.89.88-1.69,1.58-2.39.7-.7,1.23-1.51,1.58-2.43.35-.91.53-1.84.53-2.78s-.18-1.85-.53-2.74c-.35-.89-.88-1.69-1.58-2.39-.7-.7-1.23-1.51-1.58-2.43-.35-.92-.53-1.84-.53-2.78s.18-1.86.53-2.78.88-1.72,1.58-2.43c.7-.7,1.51-1.23,2.43-1.58.91-.35,1.84-.53,2.78-.53s1.85.18,2.74.53c.89.35,1.69.88,2.39,1.58.7.7,1.51,1.24,2.43,1.62.92.38,1.84.56,2.78.56s1.85-.19,2.75-.56c.89-.37,1.69-.91,2.39-1.62.7-.7,1.51-1.23,2.43-1.58.92-.35,1.84-.53,2.78-.53s1.85.18,2.74.53c.89.35,1.69.88,2.39,1.58.7.7,1.23,1.51,1.58,2.43.35.92.53,1.84.53,2.78s-.18,1.86-.53,2.78c-.35.91-.88,1.72-1.58,2.43s-1.23,1.5-1.58,2.39c-.35.89-.53,1.81-.53,2.74s.18,1.87.53,2.78c.35.92.88,1.72,1.58,2.43.7.7,1.23,1.5,1.58,2.39.35.89.53,1.81.53,2.74s-.18,1.86-.53,2.78c-.35.91-.88,1.72-1.58,2.43s-1.23,1.5-1.58,2.39c-.35.89-.53,1.81-.53,2.74s.18,1.87.53,2.78c.35.92.88,1.72,1.58,2.43.7.7,1.23,1.5,1.58,2.39.35.89.53,1.81.53,2.74s-.18,1.86-.53,2.78c-.35.92-.88,1.72-1.58,2.43-.7.7-1.5,1.23-2.39,1.58-.89.35-1.81.53-2.74.53s-1.87-.18-2.78-.53c-.92-.35-1.72-.88-2.43-1.58-.7-.7-1.23-1.51-1.58-2.43-.35-.92-.53-1.84-.53-2.78s.18-1.85.53-2.74c.35-.89.88-1.69,1.58-2.39.7-.7,1.23-1.51,1.58-2.43.35-.91.53-1.84.53-2.78s-.18-1.85-.53-2.74c-.35-.89-.88-1.69-1.58-2.39-.7-.7-1.23-1.51-1.58-2.43-.35-.92-.53-1.84-.53-2.78s.18-1.85.53-2.74c.35-.89.88-1.69,1.58-2.39.7-.7,1.23-1.51,1.58-2.43.35-.91.53-1.84.53-2.78s-.18-1.85-.53-2.74c-.35-.89-.88-1.69-1.58-2.39-.7-.7-1.5-1.23-2.39-1.58-.89-.35-1.81-.53-2.75-.53s-1.86.18-2.78.53c-.92.35-1.72.88-2.43,1.58-.7.7-1.23,1.5-1.58,2.39-.35.89-.53,1.81-.53,2.74s.18,1.87.53,2.78c.35.92.88,1.72,1.58,2.43.7.7,1.23,1.5,1.58,2.39.35.89.53,1.81.53,2.74s-.18,1.86-.53,2.78c-.35.91-.88,1.72-1.58,2.43-.7.7-1.23,1.5-1.58,2.39-.35.89-.53,1.81-.53,2.74s.18,1.87.53,2.78c.35.92.88,1.72,1.58,2.43.7.7,1.23,1.5,1.58,2.39.35.89.53,1.81.53,2.74s-.18,1.86-.53,2.78-.88,1.72-1.58,2.43-1.5,1.23-2.39,1.58c-.89.35-1.81.53-2.74.53Z"/>
        <path d="M90.08,56.02c-.94,0-1.87-.18-2.78-.53-.92-.35-1.72-.88-2.43-1.58-.7-.7-1.23-1.51-1.58-2.43-.35-.92-.53-1.84-.53-2.78s.18-1.85.53-2.74c.35-.89.88-1.69,1.58-2.39.7-.7,1.23-1.51,1.58-2.43.35-.91.53-1.84.53-2.78s-.18-1.85-.53-2.74c-.35-.89-.88-1.69-1.58-2.39-.7-.7-1.23-1.51-1.58-2.43-.35-.92-.53-1.84-.53-2.78s.18-1.85.53-2.74c.35-.89.88-1.69,1.58-2.39.7-.7,1.23-1.51,1.58-2.43.35-.91.53-1.84.53-2.78s-.18-1.85-.53-2.74c-.35-.89-.88-1.69-1.58-2.39-.7-.7-1.23-1.51-1.58-2.43-.35-.92-.53-1.84-.53-2.78s.18-1.86.53-2.78c.35-.92.88-1.72,1.58-2.43.7-.7,1.51-1.23,2.43-1.58.92-.35,1.84-.53,2.78-.53s1.85.18,2.74.53c.89.35,1.69.88,2.39,1.58.7.7,1.23,1.51,1.58,2.43.35.92.53,1.84.53,2.78s-.18,1.86-.53,2.78c-.35.91-.88,1.72-1.58,2.43s-1.23,1.5-1.58,2.39c-.35.89-.53,1.81-.53,2.74s.18,1.87.53,2.78c.35.92.88,1.72,1.58,2.43.7.7,1.51,1.23,2.43,1.58.92.35,1.84.53,2.78.53s1.85-.18,2.74-.53c.89-.35,1.69-.88,2.39-1.58.7-.7,1.51-1.24,2.43-1.62.91-.38,1.84-.56,2.78-.56s1.85.19,2.74.56c.89.38,1.69.91,2.39,1.62.7.7,1.23,1.5,1.58,2.39.35.89.53,1.81.53,2.74s-.18,1.86-.53,2.78c-.35.91-.88,1.72-1.58,2.43-.7.7-1.5,1.23-2.39,1.58s-1.81.53-2.74.53-1.87-.18-2.78-.53c-.92-.35-1.72-.88-2.43-1.58-.7-.7-1.5-1.23-2.39-1.58-.89-.35-1.81-.53-2.74-.53s-1.87.18-2.78.53c-.92.35-1.72.88-2.43,1.58s-1.23,1.5-1.58,2.39c-.35.89-.53,1.81-.53,2.74s.18,1.87.53,2.78c.35.92.88,1.72,1.58,2.43.7.7,1.23,1.5,1.58,2.39.35.89.53,1.81.53,2.74s-.18,1.86-.53,2.78c-.35.92-.88,1.72-1.58,2.43-.7.7-1.5,1.23-2.39,1.58-.89.35-1.81.53-2.74.53Z"/>
      </g>
      <g>
        <path d="M133.95,1.43h2.57l5.31,13.79h-2.59l-1.29-3.65h-5.5l-1.29,3.65h-2.49l5.29-13.79ZM133.1,9.74h4.21l-2.07-5.93h-.06l-2.09,5.93Z"/>
        <path d="M152.23,15.22h-2.09v-1.35h-.04c-.3.58-.73.99-1.29,1.25-.57.25-1.17.38-1.8.38-.79,0-1.47-.14-2.06-.42-.59-.28-1.07-.65-1.46-1.13-.39-.48-.68-1.04-.87-1.69-.19-.65-.29-1.35-.29-2.1,0-.9.12-1.68.37-2.34.24-.66.57-1.2.98-1.62.41-.42.87-.74,1.39-.94.52-.2,1.05-.3,1.59-.3.31,0,.62.03.95.09.32.06.63.15.93.28.3.13.57.29.82.49.25.2.46.43.63.71h.04V1.43h2.2v13.79ZM144.55,10.34c0,.42.05.84.16,1.26s.28.78.5,1.1c.22.32.51.58.86.77.35.19.76.29,1.24.29s.91-.1,1.27-.31c.35-.21.64-.48.87-.81.22-.33.39-.71.5-1.13s.16-.85.16-1.28c0-1.11-.25-1.97-.74-2.59-.5-.62-1.17-.93-2.02-.93-.51,0-.95.11-1.3.32s-.64.49-.87.83c-.22.34-.39.73-.48,1.16-.1.43-.14.87-.14,1.32Z"/>
        <path d="M153.64,5.24h2.39l2.53,7.67h.04l2.43-7.67h2.28l-3.57,9.98h-2.47l-3.63-9.98Z"/>
        <path d="M173.01,13c0,.27.04.46.11.58.07.12.21.17.42.17h.23c.09,0,.19-.01.31-.04v1.53c-.08.03-.18.05-.3.09-.12.03-.25.06-.38.09-.13.03-.26.05-.39.06s-.24.02-.33.02c-.45,0-.82-.09-1.12-.27s-.49-.5-.58-.95c-.44.42-.98.73-1.61.93-.64.19-1.25.29-1.84.29-.45,0-.88-.06-1.29-.18s-.78-.3-1.09-.54-.57-.54-.75-.91c-.19-.37-.28-.79-.28-1.28,0-.62.11-1.12.34-1.51s.52-.69.89-.91c.37-.22.78-.38,1.24-.47s.92-.17,1.38-.22c.4-.08.78-.13,1.14-.16.36-.03.68-.09.96-.16.28-.08.5-.2.66-.36.16-.16.24-.4.24-.72,0-.28-.07-.51-.2-.7-.14-.18-.3-.32-.5-.42-.2-.1-.42-.16-.67-.19-.24-.03-.48-.05-.7-.05-.62,0-1.13.13-1.53.39s-.62.66-.68,1.2h-2.2c.04-.64.19-1.18.46-1.6.27-.42.62-.77,1.03-1.02.42-.26.89-.44,1.42-.54.53-.1,1.07-.15,1.62-.15.49,0,.97.05,1.45.15.48.1.9.27,1.28.5s.69.53.92.9c.23.37.35.81.35,1.34v5.14ZM170.81,10.22c-.33.22-.75.35-1.24.4-.49.05-.98.11-1.47.2-.23.04-.46.09-.68.16s-.41.17-.58.29c-.17.12-.3.28-.4.48s-.15.44-.15.72c0,.24.07.45.21.62s.31.3.51.4c.2.1.42.16.66.2s.45.06.65.06c.24,0,.51-.03.79-.1s.55-.17.8-.33c.25-.15.46-.35.63-.59.17-.24.25-.53.25-.88v-1.64Z"/>
        <path d="M175.39,5.24h2.09v1.47l.04.04c.33-.55.77-.99,1.31-1.3.54-.31,1.14-.47,1.8-.47,1.09,0,1.96.28,2.59.85.63.57.95,1.42.95,2.55v6.86h-2.2v-6.28c-.03-.78-.19-1.35-.5-1.71-.31-.35-.79-.53-1.45-.53-.37,0-.71.07-1,.2s-.55.32-.75.56-.37.52-.48.84c-.12.32-.17.66-.17,1.02v5.89h-2.2V5.24Z"/>
        <path d="M193.21,8.58c-.09-.62-.34-1.08-.74-1.4-.41-.32-.92-.47-1.54-.47-.28,0-.59.05-.91.14-.32.1-.62.28-.89.54-.27.26-.5.63-.68,1.1-.18.47-.27,1.08-.27,1.84,0,.41.05.82.14,1.24.1.41.25.78.46,1.1.21.32.49.58.82.78.33.2.74.3,1.22.3.64,0,1.17-.2,1.59-.6.42-.4.68-.96.78-1.68h2.2c-.21,1.3-.7,2.3-1.48,2.98-.78.69-1.81,1.03-3.1,1.03-.79,0-1.48-.13-2.08-.4s-1.1-.62-1.52-1.08c-.41-.46-.72-1-.94-1.63-.21-.63-.32-1.31-.32-2.05s.1-1.45.31-2.1c.21-.66.51-1.23.93-1.71s.92-.86,1.54-1.14,1.33-.42,2.15-.42c.58,0,1.13.07,1.65.22.52.15.98.37,1.39.67.41.3.74.67,1,1.12.26.45.41.98.46,1.6h-2.2Z"/>
        <path d="M197.27,1.43h2.2v2.09h-2.2V1.43ZM197.27,5.24h2.2v9.98h-2.2V5.24Z"/>
        <path d="M201.86,5.24h2.09v1.47l.04.04c.33-.55.77-.99,1.31-1.3.54-.31,1.14-.47,1.8-.47,1.09,0,1.96.28,2.59.85.63.57.95,1.42.95,2.55v6.86h-2.2v-6.28c-.03-.78-.19-1.35-.5-1.71-.31-.35-.79-.53-1.45-.53-.37,0-.71.07-1,.2s-.55.32-.75.56-.37.52-.48.84c-.12.32-.17.66-.17,1.02v5.89h-2.2V5.24Z"/>
        <path d="M222.18,14.7c0,1.51-.42,2.63-1.26,3.37-.84.74-2.06,1.11-3.64,1.11-.5,0-1.01-.05-1.52-.15-.51-.1-.97-.28-1.39-.52-.42-.24-.77-.57-1.05-.97-.28-.4-.45-.89-.5-1.47h2.2c.06.31.17.56.33.75.15.19.34.34.55.45.21.11.45.18.71.21.26.03.53.05.81.05.89,0,1.54-.22,1.95-.66.41-.44.62-1.07.62-1.89v-1.53h-.04c-.31.55-.73.98-1.26,1.29-.54.31-1.11.46-1.73.46-.8,0-1.48-.14-2.04-.42-.56-.28-1.02-.66-1.39-1.14-.37-.48-.63-1.04-.8-1.67-.17-.63-.25-1.31-.25-2.03,0-.67.1-1.31.31-1.91.21-.6.5-1.14.89-1.59.39-.46.86-.82,1.42-1.09.56-.27,1.19-.41,1.9-.41.63,0,1.21.13,1.74.4.53.26.93.68,1.22,1.25h.04v-1.37h2.2v9.46ZM217.29,13.48c.49,0,.9-.1,1.25-.3s.62-.46.83-.79c.21-.33.37-.7.46-1.12.1-.42.14-.84.14-1.26s-.05-.84-.15-1.24c-.1-.4-.26-.75-.47-1.06-.21-.31-.49-.55-.83-.73-.34-.18-.75-.27-1.23-.27s-.9.1-1.24.31-.61.47-.81.8c-.21.33-.35.7-.44,1.12-.09.42-.14.83-.14,1.25s.05.81.16,1.21c.1.39.26.74.47,1.05.21.31.48.56.81.75.33.19.72.29,1.19.29Z"/>
        <path d="M130.16,21.6h2.55l6.3,10.16h.04v-10.16h2.3v13.79h-2.55l-6.28-10.14h-.06v10.14h-2.3v-13.79Z"/>
        <path d="M145.61,30.97c0,.39.05.76.16,1.12.11.36.27.68.49.95.22.27.5.49.83.65.33.16.73.24,1.2.24.64,0,1.16-.14,1.55-.42.39-.28.69-.69.88-1.25h2.09c-.12.54-.32,1.02-.6,1.45s-.62.78-1.02,1.07-.85.51-1.34.66c-.5.15-1.01.22-1.55.22-.79,0-1.48-.13-2.09-.39s-1.12-.62-1.54-1.08-.73-1.02-.95-1.66c-.21-.64-.32-1.35-.32-2.12,0-.71.11-1.38.34-2.02.22-.64.55-1.2.97-1.68.42-.48.92-.87,1.52-1.15.59-.28,1.26-.42,2.01-.42.78,0,1.49.16,2.11.49.62.33,1.14.76,1.55,1.3.41.54.71,1.16.9,1.86s.24,1.43.15,2.17h-7.34ZM150.75,29.52c-.03-.35-.1-.68-.22-1-.12-.32-.29-.6-.5-.84-.21-.24-.47-.43-.77-.58-.3-.15-.64-.22-1.01-.22s-.74.07-1.05.2-.59.32-.81.56-.41.52-.54.84c-.14.32-.21.67-.22,1.04h5.14Z"/>
        <path d="M163.39,35.39h-2.16v-1.39h-.04c-.27.5-.67.9-1.21,1.21s-1.08.45-1.63.45c-1.31,0-2.26-.33-2.85-.98-.59-.65-.88-1.63-.88-2.94v-6.33h2.2v6.12c0,.88.17,1.49.5,1.85s.8.54,1.41.54c.46,0,.85-.07,1.16-.21.31-.14.56-.33.75-.57.19-.24.33-.52.42-.86.08-.33.12-.7.12-1.08v-5.79h2.2v9.98Z"/>
        <path d="M165.71,25.4h2.07v1.93h.04c.06-.27.19-.53.38-.79.19-.26.41-.49.68-.7s.56-.38.88-.51c.32-.13.65-.19.99-.19.26,0,.43,0,.53.02.1.01.2.03.3.04v2.12c-.15-.03-.31-.05-.47-.07s-.32-.03-.47-.03c-.37,0-.72.07-1.05.22-.33.15-.61.37-.86.66-.24.29-.44.65-.58,1.07s-.21.91-.21,1.47v4.75h-2.2v-9.98Z"/>
        <path d="M176.74,35.66c-.8,0-1.51-.13-2.13-.4-.62-.26-1.15-.63-1.58-1.09-.43-.46-.76-1.02-.98-1.66-.23-.64-.34-1.35-.34-2.12s.11-1.46.34-2.1c.22-.64.55-1.2.98-1.66.43-.46.96-.83,1.58-1.09.62-.26,1.33-.4,2.13-.4s1.51.13,2.13.4c.62.26,1.15.63,1.58,1.09.43.46.76,1.02.99,1.66.22.64.34,1.35.34,2.1s-.11,1.48-.34,2.12c-.23.64-.55,1.2-.99,1.66-.43.46-.96.83-1.58,1.09-.62.26-1.34.4-2.13.4ZM176.74,33.92c.49,0,.91-.1,1.27-.31.36-.21.66-.48.89-.81.23-.33.4-.71.51-1.13.11-.42.16-.85.16-1.28s-.06-.85-.16-1.27c-.11-.42-.28-.8-.51-1.13-.23-.33-.53-.6-.89-.8s-.79-.31-1.27-.31-.91.1-1.27.31c-.36.21-.66.47-.89.8s-.4.7-.51,1.13c-.11.43-.16.85-.16,1.27s.05.87.16,1.28.28.79.51,1.13c.23.33.53.61.89.81.36.21.79.31,1.27.31Z"/>
        <path d="M182.63,25.4h1.64v-.83c0-.63.08-1.14.23-1.54.15-.39.36-.7.62-.91.26-.21.55-.35.88-.42.33-.07.67-.11,1.03-.11.71,0,1.22.04,1.54.14v1.72c-.14-.04-.29-.07-.45-.09-.16-.02-.35-.03-.57-.03-.3,0-.55.07-.76.21-.21.14-.32.42-.32.83v1.02h1.87v1.64h-1.87v8.34h-2.2v-8.34h-1.64v-1.64Z"/>
        <path d="M191.42,30.97c0,.39.05.76.16,1.12.11.36.27.68.49.95s.5.49.83.65c.33.16.73.24,1.2.24.64,0,1.16-.14,1.55-.42s.69-.69.88-1.25h2.08c-.12.54-.31,1.02-.6,1.45-.28.42-.62.78-1.02,1.07-.4.29-.85.51-1.34.66-.5.15-1.01.22-1.55.22-.79,0-1.48-.13-2.08-.39-.61-.26-1.12-.62-1.54-1.08-.42-.46-.73-1.02-.95-1.66-.21-.64-.32-1.35-.32-2.12,0-.71.11-1.38.34-2.02.23-.64.55-1.2.97-1.68.42-.48.92-.87,1.52-1.15.59-.28,1.26-.42,2.01-.42.79,0,1.49.16,2.11.49.62.33,1.14.76,1.55,1.3.41.54.71,1.16.9,1.86.19.7.24,1.43.15,2.17h-7.34ZM196.55,29.52c-.03-.35-.1-.68-.22-1-.12-.32-.29-.6-.5-.84-.21-.24-.47-.43-.77-.58s-.64-.22-1.01-.22-.74.07-1.05.2-.59.32-.81.56c-.23.24-.41.52-.54.84-.13.32-.21.67-.22,1.04h5.14Z"/>
        <path d="M202.15,30.97c0,.39.05.76.17,1.12.11.36.27.68.49.95.22.27.5.49.83.65.33.16.73.24,1.2.24.64,0,1.16-.14,1.55-.42s.69-.69.88-1.25h2.08c-.12.54-.32,1.02-.6,1.45s-.62.78-1.02,1.07c-.4.29-.85.51-1.34.66-.5.15-1.01.22-1.55.22-.79,0-1.48-.13-2.09-.39-.6-.26-1.12-.62-1.54-1.08-.42-.46-.73-1.02-.95-1.66-.21-.64-.32-1.35-.32-2.12,0-.71.11-1.38.34-2.02.23-.64.55-1.2.97-1.68.42-.48.92-.87,1.52-1.15.59-.28,1.26-.42,2.01-.42.79,0,1.49.16,2.11.49.62.33,1.14.76,1.55,1.3.41.54.71,1.16.9,1.86s.24,1.43.15,2.17h-7.34ZM207.29,29.52c-.03-.35-.1-.68-.22-1-.12-.32-.29-.6-.5-.84-.21-.24-.47-.43-.77-.58s-.64-.22-1.01-.22-.74.07-1.05.2-.59.32-.81.56c-.23.24-.41.52-.54.84-.14.32-.21.67-.22,1.04h5.14Z"/>
        <path d="M220.58,35.39h-2.09v-1.35h-.04c-.3.58-.73.99-1.29,1.25-.57.25-1.17.38-1.8.38-.79,0-1.47-.14-2.06-.42-.59-.28-1.07-.65-1.46-1.13-.39-.48-.68-1.04-.87-1.69-.19-.65-.29-1.35-.29-2.1,0-.9.12-1.68.37-2.34.24-.66.57-1.2.97-1.62.41-.42.87-.74,1.39-.94.52-.2,1.05-.3,1.59-.3.31,0,.62.03.95.09.32.06.63.15.93.28.3.13.57.29.82.49.25.2.46.43.63.71h.04v-5.1h2.2v13.79ZM212.89,30.5c0,.42.05.84.17,1.26.11.41.28.78.5,1.1.22.32.51.58.86.77.35.19.76.29,1.24.29s.91-.1,1.26-.31c.35-.21.64-.48.87-.81.23-.33.39-.71.5-1.13s.17-.85.17-1.28c0-1.11-.25-1.97-.74-2.59-.5-.62-1.17-.93-2.02-.93-.52,0-.95.11-1.3.32-.35.21-.64.49-.87.83-.23.34-.39.73-.48,1.16-.1.43-.15.87-.15,1.32Z"/>
        <path d="M223.03,21.6h2.2v5.1h.04c.15-.24.34-.46.56-.66.22-.19.46-.36.72-.49.26-.14.54-.24.83-.31s.58-.11.86-.11c.79,0,1.47.14,2.06.42s1.07.66,1.46,1.14c.39.48.68,1.05.87,1.69s.29,1.33.29,2.07c0,.67-.09,1.32-.26,1.95s-.44,1.19-.79,1.67c-.35.48-.8.87-1.34,1.16-.54.29-1.18.43-1.91.43-.33,0-.67-.02-1.01-.07-.34-.04-.67-.13-.98-.26-.31-.13-.59-.3-.84-.5-.25-.21-.46-.48-.63-.81h-.04v1.37h-2.08v-13.79ZM230.71,30.41c0-.45-.06-.89-.17-1.31s-.29-.8-.52-1.13c-.23-.33-.52-.59-.87-.79s-.75-.3-1.2-.3c-.93,0-1.62.32-2.09.97-.47.64-.71,1.5-.71,2.57,0,.5.06.97.18,1.4.12.43.31.8.55,1.11.25.31.54.55.88.73s.74.27,1.19.27c.5,0,.93-.1,1.27-.31.35-.21.63-.47.86-.8.23-.33.39-.7.48-1.12.1-.42.14-.85.14-1.28Z"/>
        <path d="M243.13,33.17c0,.27.04.46.11.58.07.12.21.17.42.17h.23c.09,0,.19-.01.31-.04v1.53c-.08.03-.18.05-.3.09-.12.03-.25.06-.38.09s-.26.05-.39.06-.24.02-.33.02c-.45,0-.82-.09-1.12-.27-.3-.18-.49-.5-.58-.95-.44.42-.98.73-1.61.93-.64.19-1.25.29-1.84.29-.45,0-.88-.06-1.29-.18s-.78-.3-1.09-.54-.57-.54-.75-.91c-.19-.37-.28-.79-.28-1.28,0-.62.11-1.12.34-1.51.22-.39.52-.69.89-.91.37-.22.78-.38,1.24-.47s.92-.17,1.38-.22c.4-.08.78-.13,1.14-.16.36-.03.68-.09.96-.16.28-.08.5-.2.66-.36.16-.16.24-.4.24-.72,0-.28-.07-.51-.2-.7-.13-.18-.3-.32-.5-.42s-.42-.16-.67-.19c-.25-.03-.48-.05-.7-.05-.62,0-1.13.13-1.53.39-.4.26-.62.66-.68,1.2h-2.2c.04-.64.19-1.18.46-1.6s.61-.77,1.03-1.02c.42-.26.89-.44,1.42-.54.53-.1,1.07-.15,1.62-.15.49,0,.97.05,1.45.15.48.1.9.27,1.28.5.38.23.69.53.92.9s.35.81.35,1.34v5.14ZM240.93,30.39c-.33.22-.75.35-1.24.4-.49.05-.98.11-1.47.2-.23.04-.46.09-.68.16s-.41.17-.58.29c-.17.12-.3.28-.4.48-.1.2-.14.44-.14.72,0,.24.07.45.21.62.14.17.31.3.51.4.2.1.42.16.66.2s.45.06.65.06c.25,0,.51-.03.79-.1s.55-.17.8-.33c.25-.15.46-.35.63-.59.17-.24.25-.53.25-.88v-1.64Z"/>
        <path d="M252.25,28.75c-.09-.62-.34-1.08-.74-1.4-.41-.32-.92-.47-1.54-.47-.28,0-.59.05-.91.14-.32.1-.62.28-.89.54-.27.26-.5.63-.68,1.1-.18.47-.27,1.08-.27,1.84,0,.41.05.82.15,1.24.1.41.25.78.46,1.1.21.32.49.58.82.78.33.2.74.3,1.22.3.64,0,1.17-.2,1.59-.6.42-.4.68-.96.78-1.68h2.2c-.21,1.3-.7,2.3-1.48,2.98-.78.69-1.81,1.03-3.1,1.03-.79,0-1.48-.13-2.08-.4s-1.1-.62-1.52-1.08c-.41-.46-.72-1-.94-1.63-.21-.63-.32-1.31-.32-2.05s.1-1.45.31-2.1c.21-.66.51-1.23.93-1.71.41-.48.92-.86,1.54-1.14.61-.28,1.33-.42,2.15-.42.58,0,1.13.07,1.65.22.52.15.99.37,1.39.67.41.3.74.67,1,1.12.26.45.41.98.46,1.6h-2.2Z"/>
        <path d="M256.3,21.6h2.2v7.84l3.98-4.04h2.7l-3.82,3.67,4.19,6.31h-2.68l-3.05-4.85-1.31,1.27v3.57h-2.2v-13.79Z"/>
        <path d="M130.01,41.77h2.2v2.09h-2.2v-2.09ZM130.01,45.57h2.2v9.98h-2.2v-9.98Z"/>
        <path d="M134.6,45.57h2.08v1.47l.04.04c.33-.55.77-.99,1.31-1.3.54-.31,1.14-.47,1.8-.47,1.09,0,1.96.28,2.59.85.63.57.95,1.42.95,2.55v6.86h-2.2v-6.28c-.03-.78-.19-1.35-.5-1.71-.31-.35-.79-.53-1.45-.53-.37,0-.71.07-1,.2-.3.14-.55.32-.75.56s-.37.52-.48.84c-.12.32-.17.66-.17,1.02v5.89h-2.2v-9.98Z"/>
        <path d="M150.05,41.77h11.16v2.09h-4.38v11.7h-2.41v-11.7h-4.37v-2.09Z"/>
        <path d="M162.56,41.77h2.2v2.09h-2.2v-2.09ZM162.56,45.57h2.2v9.98h-2.2v-9.98Z"/>
        <path d="M167.16,45.57h2.09v1.47l.04.04c.33-.55.77-.99,1.31-1.3.54-.31,1.14-.47,1.8-.47,1.09,0,1.96.28,2.59.85.63.57.95,1.42.95,2.55v6.86h-2.2v-6.28c-.03-.78-.19-1.35-.5-1.71-.31-.35-.79-.53-1.45-.53-.37,0-.71.07-1,.2s-.55.32-.75.56-.37.52-.48.84c-.12.32-.17.66-.17,1.02v5.89h-2.2v-9.98Z"/>
        <path d="M178.25,45.57h2.08v1.47l.04.04c.33-.55.77-.99,1.31-1.3.54-.31,1.14-.47,1.8-.47,1.09,0,1.96.28,2.59.85.63.57.95,1.42.95,2.55v6.86h-2.2v-6.28c-.03-.78-.19-1.35-.5-1.71-.31-.35-.79-.53-1.45-.53-.37,0-.71.07-1,.2-.3.14-.55.32-.75.56s-.37.52-.48.84c-.12.32-.17.66-.17,1.02v5.89h-2.2v-9.98Z"/>
        <path d="M189.39,41.77h2.2v2.09h-2.2v-2.09ZM189.39,45.57h2.2v9.98h-2.2v-9.98Z"/>
        <path d="M192.98,45.57h1.66v-2.99h2.2v2.99h1.99v1.64h-1.99v5.33c0,.23,0,.43.03.6.02.17.06.31.13.42.07.12.18.2.32.26.14.06.33.09.58.09.15,0,.31,0,.46,0,.15,0,.31-.03.46-.07v1.7c-.24.03-.48.05-.71.08-.23.03-.47.04-.71.04-.58,0-1.05-.05-1.4-.16s-.63-.27-.83-.48c-.2-.21-.33-.48-.41-.8-.07-.32-.11-.69-.13-1.1v-5.89h-1.66v-1.64Z"/>
        <path d="M209.18,55.55h-2.16v-1.39h-.04c-.27.5-.67.91-1.21,1.21-.53.3-1.08.45-1.63.45-1.31,0-2.26-.33-2.85-.98-.59-.65-.88-1.63-.88-2.94v-6.33h2.2v6.12c0,.88.17,1.49.5,1.85s.8.54,1.41.54c.46,0,.85-.07,1.16-.21s.56-.33.75-.57.33-.53.42-.86c.08-.33.13-.7.13-1.08v-5.79h2.2v9.98Z"/>
        <path d="M213.16,52.35c.06.64.31,1.09.73,1.35.42.26.93.39,1.53.39.21,0,.44-.02.71-.05.26-.03.51-.09.74-.18s.42-.22.57-.4.22-.4.2-.69-.12-.51-.31-.7c-.19-.18-.44-.33-.74-.43s-.65-.2-1.03-.28c-.39-.08-.78-.16-1.18-.25-.41-.09-.81-.2-1.19-.33-.38-.13-.72-.3-1.02-.52-.3-.22-.54-.5-.72-.84-.18-.34-.27-.76-.27-1.26,0-.54.13-.99.4-1.36.26-.37.6-.66,1-.89.41-.23.86-.38,1.35-.47.5-.09.97-.14,1.42-.14.51,0,1.01.06,1.48.16.47.11.9.29,1.28.53.38.24.69.56.95.96.25.39.41.87.47,1.42h-2.3c-.1-.53-.34-.88-.72-1.06-.38-.18-.81-.27-1.3-.27-.15,0-.34.01-.55.04-.21.03-.41.07-.6.14-.19.07-.34.17-.47.31s-.19.31-.19.53c0,.27.09.49.28.66s.43.31.73.42c.3.11.65.2,1.03.28.39.08.79.16,1.2.25.4.09.79.2,1.18.33.39.13.73.3,1.03.52s.55.5.73.83c.19.33.28.75.28,1.24,0,.59-.13,1.09-.41,1.51-.27.41-.62.75-1.05,1s-.91.44-1.44.56c-.53.12-1.05.17-1.56.17-.63,0-1.21-.07-1.75-.21-.54-.14-1-.36-1.39-.65-.39-.29-.7-.65-.93-1.08-.23-.43-.34-.94-.36-1.54h2.2Z"/>
      </g>
    </g>
  </g>
</svg>